<svg width="234" height="48" viewBox="0 0 234 48" fill="none" xmlns="http://www.w3.org/2000/svg">
<g clip-path="url(#clip0_3431_1210)">
<path d="M63.6705 41.6046C61.9097 41.2177 60.1991 40.6318 58.5717 39.8582V29.7729H59.0816C60.0189 32.8598 61.7272 35.659 64.0465 37.9084C65.9499 39.8326 68.5373 40.9323 71.2484 40.9696C72.1495 41.0156 73.0508 40.8826 73.8999 40.5784C74.7489 40.2743 75.5288 39.8049 76.1942 39.1977C76.7918 38.6236 77.2631 37.9319 77.578 37.1665C77.8929 36.4012 78.0446 35.5789 78.0234 34.752C78.0637 33.9028 77.8865 33.0574 77.5086 32.2952C77.1306 31.5331 76.5643 30.8793 75.8628 30.3953C73.9135 29.1533 71.7949 28.1972 69.5722 27.5565C67.4446 26.9437 65.374 26.149 63.3836 25.1812C61.8443 24.4075 60.5282 23.2556 59.5596 21.8343C58.5855 20.1603 58.0831 18.2551 58.1056 16.3202C58.128 14.3852 58.6744 12.4921 59.6871 10.841C60.7903 9.18263 62.3351 7.86318 64.1485 7.03042C66.2274 6.06281 68.5019 5.58474 70.7959 5.63322C72.7555 5.62552 74.7097 5.83857 76.6212 6.26831C78.2057 6.59869 79.7519 7.0903 81.2356 7.73538V17.1093H80.7257C79.7697 14.3456 78.2236 11.8214 76.1942 9.7105C75.3668 8.86033 74.3761 8.1849 73.2811 7.72445C72.1861 7.264 71.0093 7.02796 69.8208 7.03042C68.1569 6.96999 66.53 7.52923 65.2574 8.59909C64.6644 9.11306 64.1945 9.75299 63.8823 10.4718C63.5702 11.1906 63.4238 11.9699 63.4538 12.7526C63.427 13.5671 63.6148 14.3744 63.9983 15.0941C64.3818 15.8139 64.9478 16.421 65.6398 16.8552C67.777 18.1399 70.0711 19.1452 72.4658 19.8465C74.4673 20.4717 76.4171 21.2509 78.2974 22.1773C79.9934 23.0259 81.4019 24.3523 82.348 25.9917C83.2941 27.6311 83.7362 29.5112 83.6192 31.3988C83.6719 33.4288 83.1128 35.4281 82.0143 37.1385C80.9158 38.849 79.3281 40.1922 77.4562 40.995C75.2295 41.9726 72.8142 42.4496 70.3817 42.3922C68.1211 42.3977 65.8679 42.1333 63.6705 41.6046Z" fill="#63530D"/>
<path d="M108.323 33.4501C107.873 35.9888 106.547 38.2912 104.575 39.9598C102.586 41.6096 100.062 42.483 97.475 42.4176C95.3955 42.4468 93.3426 41.9485 91.5095 40.9696C89.7227 39.9859 88.2596 38.5081 87.2967 36.7145C86.2236 34.6631 85.6989 32.3709 85.7734 30.0587C85.7259 27.6056 86.3026 25.1804 87.4497 23.0092C88.4782 21.0478 90.0197 19.3998 91.911 18.2397C93.7525 17.1183 95.8714 16.5311 98.0295 16.5441C99.8842 16.4983 101.719 16.9362 103.351 17.8142C104.807 18.6087 106.006 19.8007 106.806 21.2501C107.588 22.6818 107.994 24.2877 107.985 25.9179H91.1144C91.1493 28.104 91.6557 30.2569 92.5994 32.2307C93.3642 33.8466 94.5674 35.2171 96.0729 36.1873C97.4846 37.0662 99.1182 37.5266 100.783 37.5147C102.276 37.5442 103.749 37.1712 105.047 36.435C106.254 35.7346 107.224 34.6908 107.832 33.4374L108.323 33.4501ZM92.5484 19.7131C91.6242 20.8817 91.1526 22.571 91.1144 24.7938H101.42C101.332 23.0139 100.762 21.291 99.7695 19.8084C99.3667 19.2262 98.825 18.7531 98.193 18.4316C97.5611 18.11 96.8587 17.9503 96.1494 17.9666C95.4528 17.9498 94.7622 18.0996 94.1357 18.4035C93.5091 18.7073 92.9648 19.1564 92.5484 19.7131Z" fill="#63530D"/>
<path d="M110.706 42.1445C111.18 41.415 111.523 40.6092 111.72 39.7629C111.973 38.7235 112.097 37.657 112.089 36.5875V14.1879C112.12 13.0745 111.969 11.9635 111.643 10.8981C111.383 10.0861 110.926 9.3508 110.311 8.75787V8.51018L118.495 5.76025H118.743V21.9741H118.992C119.675 20.5108 120.769 19.2768 122.143 18.4222C123.517 17.5675 125.11 17.1291 126.729 17.1601C127.801 17.1129 128.871 17.2948 129.867 17.6935C130.863 18.0922 131.762 18.6985 132.503 19.4718C133.983 21.1094 134.761 23.259 134.67 25.4607V36.5684C134.66 37.6381 134.784 38.705 135.04 39.7439C135.234 40.591 135.577 41.3973 136.053 42.1254V42.4176H126.633V42.1699C127.107 41.4413 127.448 40.635 127.64 39.7883C127.897 38.7494 128.021 37.6826 128.01 36.6129V25.6385C128.056 24.413 127.614 23.2192 126.78 22.317C126.36 21.8832 125.853 21.5428 125.292 21.3184C124.73 21.094 124.128 20.9906 123.523 21.0151C122.277 20.9865 121.068 21.442 120.152 22.2853C119.687 22.7066 119.321 23.2238 119.078 23.8007C118.834 24.3776 118.72 25.0005 118.743 25.6258V36.5811C118.732 37.6508 118.857 38.7177 119.113 39.7565C119.31 40.6028 119.653 41.4086 120.126 42.1381V42.4176H110.706V42.1445Z" fill="#63530D"/>
<path d="M160.782 33.4501C160.327 35.987 159.003 38.2878 157.035 39.9598C155.044 41.6076 152.522 42.4807 149.935 42.4176C147.855 42.4482 145.802 41.9498 143.969 40.9696C142.18 39.9863 140.715 38.5086 139.75 36.7145C138.673 34.6725 138.138 32.3902 138.195 30.0841C138.146 27.6301 138.725 25.2041 139.877 23.0347C140.904 21.0719 142.446 19.4235 144.339 18.2651C146.178 17.143 148.295 16.5557 150.451 16.5695C152.306 16.5228 154.14 16.9607 155.773 17.8396C157.229 18.6341 158.427 19.8261 159.227 21.2755C160.014 22.7055 160.422 24.3122 160.413 25.9434H143.574C143.605 28.1285 144.107 30.2814 145.046 32.2562C145.811 33.872 147.014 35.2426 148.52 36.2128C149.932 37.0907 151.565 37.551 153.23 37.5401C154.723 37.5696 156.196 37.1966 157.494 36.4604C158.704 35.7635 159.674 34.7187 160.279 33.4628L160.782 33.4501ZM145.002 19.7132C144.084 20.8817 143.606 22.571 143.574 24.7939H153.88C153.79 23.0133 153.217 21.2903 152.223 19.8084C151.821 19.2254 151.279 18.7516 150.647 18.43C150.015 18.1084 149.312 17.9491 148.603 17.9667C147.906 17.9503 147.216 18.1004 146.589 18.4042C145.963 18.708 145.418 19.1568 145.002 19.7132Z" fill="#63530D"/>
<path d="M163.408 42.1381C163.883 41.3867 164.226 40.5597 164.421 39.693C164.674 38.6299 164.798 37.5403 164.791 36.4477V25.1622C164.824 24.0279 164.673 22.8957 164.345 21.8089C164.071 20.9884 163.616 20.2396 163.013 19.6179V19.3702L171.177 16.5441H171.426V23.4475H171.674C172.083 21.4883 173.089 19.7027 174.555 18.335C175.919 17.141 177.831 16.5441 180.291 16.5441V22.8441H177.43C175.36 22.8441 173.839 23.2802 172.866 24.1524C171.897 25.0288 171.413 26.5022 171.413 28.598V36.4477C171.402 37.5405 171.527 38.6304 171.783 39.693C171.978 40.5597 172.321 41.3867 172.796 42.1381V42.3922H163.408V42.1381Z" fill="#63530D"/>
<path d="M205.677 40.0296C205.239 40.7915 204.569 41.3945 203.764 41.7507C202.85 42.1853 201.846 42.4027 200.833 42.3858C199.648 42.4428 198.477 42.1054 197.506 41.4268C197.09 41.1121 196.743 40.717 196.484 40.2652C196.226 39.8133 196.062 39.3142 196.002 38.7976L195.951 38.6007H195.804C195.162 39.7338 194.235 40.6814 193.115 41.3506C191.817 42.0832 190.341 42.4416 188.851 42.3858C187.16 42.4857 185.489 41.9787 184.141 40.9569C183.578 40.4831 183.132 39.8868 182.837 39.214C182.542 38.5412 182.406 37.8099 182.439 37.0765C182.423 36.2251 182.588 35.38 182.924 34.5971C183.26 33.8142 183.76 33.1115 184.389 32.5356C185.825 31.2278 187.56 30.2902 189.443 29.8047C191.588 29.2058 193.806 28.9108 196.034 28.9283V25.9053C196.068 25.0901 195.937 24.2763 195.649 23.5126C195.361 22.7488 194.922 22.0506 194.357 21.4597C193.749 20.8797 193.028 20.4301 192.239 20.1384C191.45 19.8468 190.609 19.7194 189.768 19.764C188.444 19.7413 187.139 20.0819 185.995 20.7484C184.894 21.408 183.998 22.3602 183.408 23.4983H182.917C183.423 21.4295 184.678 19.6199 186.442 18.4176C188.305 17.1505 190.521 16.4975 192.777 16.5504C195.866 16.5504 198.29 17.412 200.049 19.1352C200.932 20.0216 201.62 21.081 202.071 22.2464C202.522 23.4117 202.726 24.6576 202.668 25.9053V38.2387C202.619 38.7767 202.779 39.313 203.114 39.7375C203.251 39.888 203.418 40.0078 203.605 40.0889C203.792 40.1699 203.994 40.2103 204.198 40.2075C204.419 40.2379 204.645 40.2184 204.858 40.1502C205.071 40.082 205.266 39.967 205.428 39.8137L205.677 40.0296ZM195.001 38.1625C195.327 37.8428 195.584 37.461 195.759 37.0397C195.933 36.6185 196.02 36.1666 196.014 35.711V30.0588C194.272 30.0257 192.567 30.5609 191.158 31.583C190.565 32.0483 190.093 32.6477 189.779 33.3313C189.466 34.015 189.32 34.7632 189.354 35.5142C189.274 36.5201 189.595 37.517 190.246 38.2895C190.532 38.5868 190.877 38.8212 191.259 38.9777C191.641 39.1341 192.052 39.209 192.464 39.1977C192.936 39.211 193.406 39.1257 193.843 38.9474C194.279 38.7692 194.674 38.5018 195.001 38.1625Z" fill="#63530D"/>
<path d="M208.659 42.1381C209.135 41.3867 209.477 40.5597 209.673 39.693C209.926 38.6299 210.05 37.5403 210.042 36.4478V25.1622C210.078 24.0277 209.927 22.895 209.596 21.8089C209.322 20.9884 208.867 20.2396 208.264 19.6179V19.3702L216.429 16.5441H216.677V21.4597H216.926C217.577 20.0204 218.619 18.7909 219.934 17.9095C221.327 16.9683 222.98 16.4822 224.663 16.5187C225.745 16.4763 226.823 16.6691 227.822 17.0836C228.821 17.4982 229.718 18.1246 230.45 18.9193C231.938 20.6149 232.714 22.8164 232.617 25.067V36.4478C232.606 37.5405 232.73 38.6305 232.987 39.693C233.182 40.5597 233.525 41.3867 234 42.1381V42.3922H224.586V42.1381C225.062 41.3867 225.405 40.5597 225.6 39.693C225.853 38.6299 225.977 37.5403 225.969 36.4478V25.213C226.014 23.9618 225.571 22.7419 224.733 21.8089C224.32 21.3665 223.815 21.0183 223.254 20.7881C222.693 20.558 222.089 20.4512 221.483 20.4753C220.228 20.452 219.014 20.922 218.105 21.7836C217.639 22.2224 217.272 22.7553 217.029 23.3467C216.786 23.9382 216.673 24.5744 216.696 25.213V36.4478C216.689 37.5403 216.813 38.6299 217.066 39.693C217.261 40.5597 217.604 41.3867 218.079 42.1381V42.3922H208.659V42.1381Z" fill="#63530D"/>
<path d="M10.7775 41.1474C13.6009 41.1474 17.3549 40.0106 21.931 37.8259C22.7277 37.4385 23.5371 37.013 24.321 36.6065C24.9265 36.289 25.532 35.9714 26.1438 35.6602C27.6694 34.8951 29.2402 34.2228 30.8474 33.647C35.6211 31.9767 39.8976 31.8941 44.1168 33.4184L26.9724 16.3408C26.7912 16.1635 26.6473 15.952 26.5491 15.7186C26.4509 15.4853 26.4003 15.2348 26.4003 14.9817C26.4003 14.7287 26.4509 14.4782 26.5491 14.2449C26.6473 14.0115 26.7912 13.8 26.9724 13.6227L29.1776 11.4253C29.3555 11.2448 29.5678 11.1014 29.802 11.0035C30.0361 10.9056 30.2875 10.8552 30.5415 10.8552C30.7954 10.8552 31.0468 10.9056 31.281 11.0035C31.5151 11.1014 31.7274 11.2448 31.9054 11.4253L41.6503 21.1294C42.925 22.3996 43.4731 21.8153 43.4986 20.6912C43.7472 13.0003 45.5445 6.16037 48.2723 1.35909C49.1391 -0.304837 47.7497 -0.12066 46.6343 0.368358C40.9811 3.08019 33.8875 5.51258 27.0998 4.9156C21.4657 4.42023 16.2013 3.72163 11.6507 2.25457L10.4206 1.82905L10.1465 1.73379L10.0063 1.68298L9.63666 1.58772H9.56018C7.2785 0.997085 7.64815 2.11485 8.11341 3.02938L8.21539 3.25165C9.43676 5.90844 10.3498 8.69547 10.9368 11.5586L28.4956 29.0617C28.6767 29.239 28.8206 29.4505 28.9188 29.6839C29.017 29.9172 29.0676 30.1677 29.0676 30.4207C29.0676 30.6738 29.017 30.9243 28.9188 31.1576C28.8206 31.391 28.6767 31.6025 28.4956 31.7798L26.2904 33.9772C26.1124 34.1577 25.9002 34.3011 25.666 34.399C25.4318 34.4968 25.1804 34.5472 24.9265 34.5472C24.6726 34.5472 24.4212 34.4968 24.187 34.399C23.9528 34.3011 23.7405 34.1577 23.5626 33.9772L22.6703 33.0818C22.6348 33.0584 22.6008 33.033 22.5683 33.0056C21.931 32.4403 20.5288 30.9987 17.221 27.6581L13.9323 24.3747C12.7596 23.2125 12.1797 23.6189 12.0203 24.4954C12.0203 24.4954 11.9885 24.6668 11.9757 24.8193C11.8328 30.3592 10.6885 35.828 8.5978 40.9632C9.29081 41.1141 9.99803 41.1908 10.7074 41.1919L10.7775 41.1474Z" fill="#F36621"/>
<path d="M0.0318894 33.3421C0.10972 33.6597 0.165089 33.9823 0.197595 34.3075C0.276265 34.6944 0.378434 35.0761 0.503526 35.4506C1.30677 38.0963 3.12531 40.3192 5.56401 41.6364C7.17822 42.4607 8.97017 42.8793 10.7838 42.8558C14.6079 42.8558 19.1394 41.0267 22.5619 39.3882C23.9959 38.7087 25.379 37.9275 26.8002 37.2225C28.2707 36.4811 29.7863 35.832 31.3381 35.2792C36.4368 33.4819 41.0958 33.5517 45.997 36.073C49.728 37.9094 52.8059 40.8391 54.8178 44.4689C55.2775 45.3845 55.6612 46.3361 55.965 47.3141C56.0415 47.5364 56.0925 47.7714 56.1498 48C55.558 46.7867 54.8357 45.6411 53.9956 44.5832C53.8618 44.4117 53.7152 44.2466 53.575 44.0879C53.4348 43.9291 53.2818 43.764 53.1288 43.6115C52.9759 43.4591 52.8293 43.3003 52.6763 43.1479L52.1983 42.7097C52.039 42.5636 51.8796 42.4176 51.7139 42.2842C51.5482 42.1508 51.3761 42.0048 51.2104 41.8777L50.6942 41.4903L50.1652 41.122L49.6171 40.7727C49.4386 40.6584 49.2538 40.5504 49.069 40.4488C48.8841 40.3472 48.6929 40.2392 48.5017 40.144C48.3105 40.0487 48.1193 39.9471 47.9281 39.8582L47.3418 39.5978C47.1442 39.5089 46.9466 39.4326 46.749 39.3564L46.1499 39.1342L45.5126 38.9436C44.0611 38.5172 42.563 38.2676 41.0512 38.2006C35.0028 37.8767 29.9678 40.3472 24.595 42.8748C20.4842 44.7801 16.3096 46.6409 11.708 46.2535C10.0126 46.1269 8.36031 45.6606 6.85009 44.8826C5.33988 44.1045 4.00283 43.0306 2.91905 41.7253C1.12174 39.5089 -0.2103 36.2826 0.0318894 33.3421Z" fill="#63530D"/>
</g>
<defs>
<clipPath id="clip0_3431_1210">
<rect width="234" height="48" fill="white"/>
</clipPath>
</defs>
</svg>
