<svg width="44" height="44" viewBox="0 0 44 44" fill="none" xmlns="http://www.w3.org/2000/svg">
<g clip-path="url(#clip0_1124_20647)">
<path d="M41.132 33.9296L41.006 33.9772L40.9836 33.9865C37.8853 35.1319 34.2783 34.6866 34.2783 25.6V18.3075C34.2783 16.0671 34.6965 12.939 37.6155 12.2986C37.6265 12.2944 37.6377 12.2909 37.6491 12.2883C38.0356 12.2155 38.4594 12.0232 37.8946 11.8533C34.9075 10.9637 29.7574 11.5275 27.7784 18.8032C27.7167 19.0244 27.5571 19.4903 27.1389 18.9824C24.9825 16.2893 21.8815 11.6648 18.9372 11.6648H12.5782C12.3981 11.6648 12.3131 11.8272 12.5204 11.9504C12.8219 12.1212 13.4483 12.5348 14.3705 13.4365V35.7219C14.3705 36.113 14.6338 36.4295 14.9587 36.4295H19.9949C20.3207 36.4295 20.5839 36.113 20.5839 35.7219V22.6156C20.5839 22.1927 20.7547 21.8744 21.144 22.4336C24.3095 26.9993 27.4274 31.2822 28.991 32.7776C30.844 34.5513 35.8606 38.9845 41.4457 34.4477C42.0842 33.8745 41.7817 33.7009 41.132 33.9296Z" fill="#FF6161"/>
<path d="M31.1707 5.07129H23.0409C22.6249 5.07129 22.226 5.23652 21.9319 5.53063C21.6378 5.82473 21.4726 6.22363 21.4726 6.63956C21.4726 7.05549 21.6378 7.45439 21.9319 7.7485C22.226 8.04261 22.6249 8.20784 23.0409 8.20784H31.1623C31.5782 8.20784 31.9771 8.04261 32.2712 7.7485C32.5653 7.45439 32.7306 7.05549 32.7306 6.63956C32.7306 6.22363 32.5653 5.82473 32.2712 5.53063C31.9771 5.23652 31.5782 5.07129 31.1623 5.07129H31.1707ZM31.1707 7.53012H23.0409C22.8047 7.53012 22.5782 7.43629 22.4112 7.26928C22.2441 7.10227 22.1503 6.87575 22.1503 6.63956C22.1503 6.40337 22.2441 6.17686 22.4112 6.00984C22.5782 5.84283 22.8047 5.74901 23.0409 5.74901H31.1623C31.2792 5.74901 31.395 5.77204 31.5031 5.8168C31.6111 5.86155 31.7093 5.92715 31.792 6.00984C31.8747 6.09254 31.9403 6.19071 31.9851 6.29876C32.0298 6.40681 32.0528 6.52261 32.0528 6.63956C32.0528 6.75651 32.0298 6.87232 31.9851 6.98036C31.9403 7.08841 31.8747 7.18659 31.792 7.26928C31.7093 7.35198 31.6111 7.41757 31.5031 7.46233C31.395 7.50708 31.2792 7.53012 31.1623 7.53012H31.1707Z" fill="#5586FF"/>
<path d="M43.9347 3.4807L9.44571 0.36002C8.04546 0.234931 7.59925 0.539251 7.37614 1.73973L0.0229962 41.3321C-0.058218 41.769 0.0650038 42.0341 0.564424 41.7111C0.581999 41.7014 0.600072 41.6927 0.618567 41.685C5.46808 38.4177 7.63939 41.754 8.29751 43.1786C8.52715 43.7517 8.98643 43.6957 9.62867 43.6164L44 39.341V3.4947L43.9347 3.4807ZM10.6088 37.6532V5.23007C10.6088 3.74861 11.0336 3.49097 12.8334 3.4891L43.0357 3.4947C43.5155 3.4947 43.7825 3.73741 43.7825 4.30498V38.8574C43.7825 39.2607 43.5416 39.3382 43.214 39.3382H12.2023C11.0056 39.312 10.6723 38.9489 10.6126 37.6532H10.6088Z" fill="#21BFBB"/>
</g>
<defs>
<clipPath id="clip0_1124_20647">
<rect width="44" height="44" fill="white"/>
</clipPath>
</defs>
</svg>
