<svg width="190" height="40" viewBox="0 0 190 40" fill="none" xmlns="http://www.w3.org/2000/svg">
<g clip-path="url(#clip0_3055_173)">
<path d="M50.6224 9.22255C50.7469 9.24154 50.8679 9.27904 50.9813 9.33381C51.0984 9.39441 51.2061 9.4718 51.3008 9.56352C51.4291 9.6895 51.549 9.82378 51.6597 9.96549L61.2282 22.9437C61.1923 22.5309 61.1636 22.1253 61.1456 21.7377C61.1277 21.3501 61.1169 20.9768 61.1169 20.6323V9.18307H65.2372V30.7966H62.8038C62.4904 30.8053 62.1789 30.744 61.8922 30.6171C61.6021 30.4628 61.3553 30.2382 61.1744 29.9639L51.674 17.0898C51.7027 17.4667 51.7243 17.8328 51.7422 18.1953C51.7602 18.5578 51.7709 18.8951 51.7709 19.211V30.7966H47.6507V9.18307H50.1128C50.2833 9.18535 50.4536 9.19853 50.6224 9.22255Z" fill="#3B3B3B"/>
<path d="M73.7395 15.1768C74.6304 15.1657 75.5151 15.3266 76.3452 15.6506C77.1162 15.9534 77.8102 16.4242 78.3766 17.0288C78.9672 17.6688 79.4193 18.424 79.7045 19.2469C80.0367 20.203 80.1983 21.2101 80.1819 22.2222C80.1844 22.5051 80.1712 22.7878 80.1424 23.0692C80.1255 23.25 80.0731 23.4256 79.9881 23.5861C79.9236 23.7081 79.8181 23.8035 79.6902 23.8553C79.5378 23.9071 79.3774 23.9314 79.2164 23.927H70.9615C71.0979 25.2119 71.464 26.1451 72.0382 26.7229C72.3405 27.0142 72.6985 27.2413 73.0908 27.3905C73.4831 27.5398 73.9015 27.6082 74.3209 27.5915C74.7571 27.6009 75.1918 27.5354 75.6058 27.3977C75.9381 27.2831 76.2599 27.1402 76.5677 26.9706L77.3429 26.5399C77.5686 26.4129 77.8233 26.3461 78.0823 26.3461C78.2351 26.3378 78.3874 26.3708 78.5231 26.4415C78.6589 26.5122 78.7731 26.6181 78.8539 26.7481L80.0993 28.3919C79.6914 28.9052 79.2072 29.353 78.6637 29.7198C78.1739 30.0513 77.6446 30.3202 77.0881 30.5202C76.564 30.7101 76.0215 30.8448 75.4694 30.9222C74.9594 30.9949 74.4449 31.032 73.9297 31.0334C72.9618 31.0408 72.0016 30.8617 71.1015 30.5058C70.2265 30.1603 69.4385 29.626 68.7937 28.941C68.1015 28.1966 67.569 27.3184 67.2289 26.3604C66.8268 25.2074 66.6324 23.9923 66.6546 22.7714C66.6493 21.7765 66.8157 20.7882 67.1463 19.8498C67.4549 18.9595 67.934 18.1379 68.5568 17.4308C69.1774 16.733 69.9365 16.1719 70.7857 15.7834C71.7134 15.3656 72.7222 15.1585 73.7395 15.1768ZM73.822 18.3496C73.4669 18.3296 73.1116 18.3863 72.7803 18.5157C72.449 18.6451 72.1494 18.8443 71.9019 19.0997C71.39 19.7109 71.0714 20.4605 70.9866 21.2532H76.338C76.3397 20.8903 76.2963 20.5286 76.2088 20.1764C76.1267 19.8416 75.9804 19.5259 75.7781 19.2469C75.5722 18.9702 75.3058 18.7443 74.9992 18.5865C74.6312 18.4153 74.2277 18.3341 73.822 18.3496Z" fill="#3B3B3B"/>
<path d="M88.4012 15.1769C89.4182 15.1637 90.4278 15.3502 91.373 15.726C92.2455 16.0776 93.0315 16.6139 93.6772 17.298C94.3385 18.0158 94.8465 18.8609 95.1702 19.7817C95.5383 20.838 95.7181 21.9508 95.7014 23.0693C95.7183 24.196 95.5385 25.317 95.1702 26.382C94.8484 27.3122 94.3404 28.1671 93.6772 28.8944C93.0322 29.5828 92.2462 30.124 91.373 30.4808C90.4288 30.8607 89.4188 31.0498 88.4012 31.0371C87.3765 31.0503 86.3593 30.8613 85.4079 30.4808C84.5297 30.1233 83.738 29.5825 83.0857 28.8944C82.4143 28.1706 81.9009 27.315 81.5783 26.382C81.21 25.317 81.0302 24.196 81.0471 23.0693C81.0304 21.9508 81.2102 20.838 81.5783 19.7817C81.9033 18.8583 82.4166 18.0125 83.0857 17.298C83.7387 16.6142 84.5305 16.0782 85.4079 15.726C86.3603 15.3496 87.3772 15.1631 88.4012 15.1769ZM88.4012 27.6202C88.8317 27.6483 89.2617 27.5589 89.6454 27.3617C90.029 27.1645 90.352 26.8668 90.5798 26.5005C91.0416 25.7491 91.2725 24.615 91.2725 23.098C91.2725 21.5726 91.0392 20.4421 90.5726 19.6991C90.343 19.3349 90.0195 19.0393 89.6361 18.8435C89.2527 18.6477 88.8236 18.5589 88.394 18.5865C87.9575 18.5561 87.5209 18.6433 87.1295 18.839C86.7381 19.0347 86.4064 19.3317 86.1688 19.6991C85.6986 20.4421 85.451 21.5726 85.451 23.098C85.451 24.6234 85.6878 25.7539 86.1688 26.5005C86.4052 26.8711 86.7376 27.1709 87.1306 27.3681C87.5236 27.5652 87.9627 27.6523 88.4012 27.6202Z" fill="#3B3B3B"/>
<path d="M111.583 25.2048C111.696 25.2054 111.808 25.2273 111.913 25.2694C112.035 25.3224 112.144 25.4007 112.233 25.4991L114.085 27.5915C113.309 28.699 112.259 29.5858 111.038 30.1649C109.676 30.7722 108.196 31.0689 106.706 31.0334C105.29 31.0574 103.886 30.7707 102.593 30.1936C101.408 29.6579 100.356 28.8689 99.5095 27.8822C98.6399 26.8519 97.9792 25.6621 97.5642 24.3793C97.1018 22.9625 96.8727 21.48 96.8859 19.9898C96.8695 18.474 97.1311 16.968 97.6576 15.5465C98.1372 14.2514 98.8692 13.0644 99.811 12.0543C100.748 11.0677 101.881 10.2888 103.138 9.76807C104.493 9.2128 105.945 8.93573 107.409 8.95335C108.127 8.94935 108.842 9.02154 109.545 9.1687C110.187 9.30375 110.815 9.50212 111.418 9.7609C111.983 10.0048 112.521 10.308 113.022 10.6653C113.498 11.0044 113.934 11.3957 114.322 11.8318L112.746 14.1001C112.644 14.2421 112.523 14.3701 112.387 14.4805C112.219 14.6019 112.013 14.6615 111.806 14.6492C111.642 14.6496 111.48 14.6089 111.336 14.5308C111.173 14.443 111.016 14.3459 110.865 14.2401L110.32 13.8812C110.093 13.7379 109.853 13.6176 109.602 13.5223C109.293 13.3965 108.974 13.2992 108.647 13.2316C108.226 13.1473 107.796 13.1076 107.366 13.1131C106.566 13.1036 105.774 13.2677 105.044 13.594C104.35 13.9155 103.737 14.3875 103.249 14.9758C102.722 15.6175 102.324 16.3547 102.076 17.1472C101.784 18.0758 101.642 19.0452 101.656 20.0185C101.64 21.0179 101.782 22.0135 102.076 22.9688C102.319 23.7594 102.708 24.4973 103.224 25.1437C103.683 25.711 104.261 26.1695 104.918 26.4861C105.565 26.7925 106.273 26.9495 106.989 26.9455C107.378 26.9484 107.766 26.9256 108.152 26.8773C108.485 26.839 108.813 26.7619 109.128 26.6476C109.429 26.539 109.716 26.3982 109.986 26.2277C110.277 26.0354 110.552 25.8193 110.808 25.5816C110.916 25.4842 111.037 25.4021 111.167 25.3376C111.292 25.2591 111.436 25.2134 111.583 25.2048Z" fill="#3B3B3B"/>
<path d="M121.963 15.1768C122.981 15.1636 123.992 15.3502 124.938 15.726C125.81 16.0776 126.595 16.6139 127.239 17.298C127.902 18.0142 128.411 18.8598 128.732 19.7817C129.101 20.8378 129.282 21.9505 129.267 23.0693C129.282 24.1962 129.102 25.3172 128.732 26.382C128.413 27.3135 127.905 28.1689 127.239 28.8944C126.595 29.5827 125.811 30.1239 124.938 30.4807C123.993 30.8606 122.982 31.0497 121.963 31.037C120.938 31.0497 119.921 30.8607 118.97 30.4807C118.091 30.1233 117.3 29.5825 116.647 28.8944C115.976 28.1706 115.463 27.315 115.14 26.382C114.772 25.317 114.592 24.196 114.609 23.0693C114.592 21.9507 114.772 20.838 115.14 19.7817C115.465 18.8583 115.978 18.0125 116.647 17.298C117.3 16.6142 118.092 16.0782 118.97 15.726C119.922 15.3506 120.939 15.1641 121.963 15.1768ZM121.963 27.6202C122.393 27.6482 122.823 27.5589 123.207 27.3617C123.591 27.1644 123.914 26.8668 124.142 26.5004C124.608 25.7539 124.841 24.6198 124.841 23.098C124.841 21.5726 124.608 20.442 124.142 19.6991C123.912 19.3349 123.588 19.0393 123.205 18.8435C122.822 18.6477 122.393 18.5589 121.963 18.5865C121.526 18.5561 121.09 18.6433 120.698 18.839C120.307 19.0347 119.975 19.3317 119.738 19.6991C119.268 20.442 119.02 21.5726 119.02 23.098C119.02 24.6233 119.253 25.7539 119.738 26.5004C119.974 26.87 120.305 27.1691 120.696 27.3661C121.088 27.5632 121.526 27.651 121.963 27.6202Z" fill="#3B3B3B"/>
<path d="M130.659 30.7965V15.4137H133.315C133.554 15.4058 133.789 15.4737 133.986 15.6075C134.176 15.7503 134.309 15.9547 134.363 16.1854L134.6 17.0144C134.834 16.7601 135.083 16.5204 135.347 16.2966C135.604 16.0739 135.884 15.879 136.183 15.7152C136.49 15.5501 136.815 15.4213 137.152 15.3312C137.523 15.2346 137.906 15.1875 138.29 15.1912C139.071 15.1621 139.836 15.4171 140.443 15.909C141.034 16.4249 141.48 17.0871 141.735 17.8292C141.958 17.3789 142.254 16.9689 142.611 16.6161C142.943 16.2906 143.32 16.015 143.731 15.7977C144.134 15.5902 144.562 15.4358 145.005 15.3383C145.443 15.2416 145.891 15.1922 146.34 15.1912C147.087 15.1776 147.83 15.3105 148.526 15.5824C149.14 15.832 149.687 16.2245 150.119 16.7273C150.569 17.265 150.902 17.891 151.096 18.5649C151.327 19.3672 151.438 20.1993 151.426 21.0342V30.8109H147.14V21.0199C147.14 19.4311 146.505 18.6355 145.235 18.6331C144.965 18.6273 144.698 18.6791 144.45 18.7849C144.203 18.8908 143.981 19.0483 143.799 19.2469C143.387 19.7424 143.182 20.3771 143.225 21.0199V30.7965H138.929V21.0199C138.929 20.1417 138.767 19.5244 138.444 19.1679C138.258 18.9795 138.033 18.8341 137.785 18.7417C137.537 18.6494 137.272 18.6123 137.008 18.6331C136.624 18.6322 136.247 18.7285 135.91 18.9131C135.549 19.1153 135.22 19.3705 134.934 19.6704V30.7965H130.659Z" fill="#3B3B3B"/>
<path d="M159.652 15.1768C160.542 15.1664 161.427 15.3273 162.257 15.6506C163.028 15.9534 163.722 16.4243 164.289 17.0288C164.879 17.6688 165.331 18.424 165.617 19.2469C165.949 20.203 166.11 21.2101 166.094 22.2222C166.096 22.5051 166.083 22.7879 166.054 23.0693C166.038 23.25 165.985 23.4257 165.9 23.5861C165.836 23.7071 165.732 23.8023 165.606 23.8553C165.451 23.9074 165.288 23.9317 165.125 23.9271H156.87C157.006 25.212 157.372 26.1451 157.947 26.723C158.249 27.0144 158.607 27.2416 158.999 27.3908C159.391 27.5401 159.81 27.6084 160.229 27.5915C160.666 27.6012 161.1 27.5357 161.514 27.3977C161.847 27.2838 162.169 27.1409 162.476 26.9706L163.248 26.5399C163.475 26.4132 163.731 26.3465 163.991 26.3461C164.143 26.3386 164.295 26.3719 164.431 26.4425C164.567 26.5131 164.681 26.6186 164.762 26.7481L166.008 28.3919C165.6 28.9052 165.116 29.353 164.572 29.7198C164.082 30.0513 163.553 30.3202 162.997 30.5202C162.472 30.7101 161.93 30.8448 161.378 30.9222C160.868 30.9949 160.353 31.0321 159.838 31.0335C158.87 31.0408 157.91 30.8617 157.01 30.5059C156.135 30.1603 155.347 29.626 154.702 28.941C154.01 28.1966 153.477 27.3184 153.137 26.3605C152.737 25.2072 152.543 23.9921 152.567 22.7714C152.56 21.7767 152.725 20.7884 153.055 19.8498C153.363 18.9595 153.842 18.1379 154.465 17.4308C155.085 16.7339 155.843 16.173 156.691 15.7834C157.621 15.3655 158.632 15.1584 159.652 15.1768ZM159.734 18.3496C159.379 18.3299 159.024 18.3866 158.693 18.516C158.361 18.6454 158.062 18.8445 157.814 19.0997C157.302 19.7109 156.984 20.4605 156.899 21.2532H162.25C162.252 20.8903 162.208 20.5286 162.121 20.1765C162.037 19.8422 161.891 19.5268 161.69 19.2469C161.484 18.9702 161.218 18.7443 160.911 18.5865C160.543 18.4157 160.14 18.3345 159.734 18.3496Z" fill="#3B3B3B"/>
<path d="M167.917 30.7966V15.4137H170.462C170.641 15.4084 170.82 15.429 170.993 15.4747C171.125 15.5076 171.248 15.5702 171.352 15.6578C171.453 15.7488 171.53 15.8635 171.575 15.9916C171.633 16.1563 171.677 16.3256 171.708 16.4976L171.941 17.9333C172.399 17.1414 173 16.4415 173.714 15.8695C174.324 15.3792 175.084 15.1121 175.867 15.1122C176.438 15.0842 176.999 15.264 177.446 15.6183L176.894 18.9992C176.877 19.1678 176.798 19.3241 176.671 19.4371C176.542 19.5261 176.387 19.5703 176.23 19.5627C176.044 19.5597 175.859 19.538 175.677 19.4981C175.412 19.4475 175.143 19.4246 174.873 19.4299C173.749 19.4299 172.863 20.0724 172.217 21.3573V30.793L167.917 30.7966Z" fill="#3B3B3B"/>
<path d="M189.721 17.2513C189.723 17.5617 189.667 17.8697 189.556 18.1594C189.458 18.4208 189.328 18.6692 189.168 18.8987L183.182 27.3834H189.585V30.7966H178.247V28.9267C178.255 28.6811 178.303 28.4386 178.39 28.2088C178.49 27.9213 178.627 27.6484 178.8 27.3977L184.84 18.8126H178.634V15.3994H189.721V17.2513Z" fill="#3B3B3B"/>
<path d="M37.9706 31.0047L37.8558 31.0478H37.8342C34.963 32.1066 31.6431 31.6938 31.6431 23.3061V16.5838C31.6431 14.5164 32.0307 11.6272 34.7261 11.035H34.7548C35.1137 10.9668 35.5049 10.7874 34.9809 10.633C32.2245 9.81114 27.4689 10.3316 25.6493 17.0467C25.5954 17.2513 25.4447 17.682 25.0607 17.2119C23.0687 14.7282 20.2082 10.4572 17.4877 10.4572H11.6123C11.4472 10.4572 11.3683 10.6079 11.5585 10.7228C12.1837 11.1057 12.7577 11.5664 13.2669 12.0938V32.6593C13.2539 32.8174 13.3033 32.9744 13.4046 33.0965C13.5059 33.2186 13.651 33.2962 13.8089 33.3125H18.4747C18.6325 33.2962 18.7776 33.2186 18.8789 33.0965C18.9803 32.9744 19.0297 32.8174 19.0166 32.6593V20.5605C19.0166 20.1693 19.1746 19.875 19.5335 20.3918C22.455 24.6054 25.3334 28.5606 26.7763 29.9424C28.4882 31.579 33.1182 35.6849 38.2613 31.4821C38.8715 30.9545 38.57 30.793 37.9706 31.0047Z" fill="#EE0014"/>
<path d="M28.7753 4.36292H21.2849C20.9008 4.36292 20.5324 4.5155 20.2608 4.78709C19.9892 5.05868 19.8367 5.42704 19.8367 5.81112C19.8367 6.19521 19.9892 6.56357 20.2608 6.83516C20.5324 7.10675 20.9008 7.25932 21.2849 7.25932H28.7861C29.1702 7.25932 29.5385 7.10675 29.8101 6.83516C30.0817 6.56357 30.2343 6.19521 30.2343 5.81112C30.2343 5.42704 30.0817 5.05868 29.8101 4.78709C29.5385 4.5155 29.1702 4.36292 28.7861 4.36292H28.7753ZM28.7753 6.63482H21.2849C21.0669 6.63482 20.8578 6.54822 20.7037 6.39409C20.5496 6.23995 20.463 6.0309 20.463 5.81292C20.463 5.59494 20.5496 5.38589 20.7037 5.23175C20.8578 5.07761 21.0669 4.99101 21.2849 4.99101H28.7861C29.0041 4.99101 29.2131 5.07761 29.3672 5.23175C29.5214 5.38589 29.608 5.59494 29.608 5.81292C29.608 6.0309 29.5214 6.23995 29.3672 6.39409C29.2131 6.54822 29.0041 6.63482 28.7861 6.63482H28.7753Z" fill="#4056E5"/>
<path d="M40.5588 2.89496L8.71994 0.0236907C7.43146 -0.0911603 7.01513 0.192385 6.81055 1.29782L0.0199871 37.8384C-0.0517947 38.2403 0.0594677 38.4844 0.52246 38.1973L0.572708 38.1722C5.04831 35.1573 7.05461 38.2368 7.66116 39.5504C7.87292 40.078 8.29643 40.0277 8.88863 39.9559L40.6198 36.0079V2.90215L40.5588 2.89496ZM9.80026 34.4431V4.51006C9.80026 3.14261 10.1951 2.90574 11.8568 2.90215H39.7369C40.1783 2.90215 40.426 3.12467 40.426 3.64868V35.5449C40.426 35.9038 40.2035 35.99 39.902 35.99H11.2646C10.1592 35.972 9.8541 35.6382 9.80026 34.4431Z" fill="#3FE5E0"/>
</g>
<defs>
<clipPath id="clip0_3055_173">
<rect width="189.721" height="40" fill="white"/>
</clipPath>
</defs>
</svg>
